# xmcd
#
# Track frame offsets:
#	177
#	11197
#	22905
#	33662
#	46292
#	56087
#	66215
#	78100
#	92372
#	105827
#	117737
#	128842
#	139165
#	152137
#
# Disc length: 2156 seconds
#
# Revision: 3
# Processed by: cddbd v1.4PL0 Copyright (c) Steve Scherf et al.
# Submitted via: Gronk 1.4
#
DISCID=b2086a0e
DTITLE=Buck Owens - On The Bandstand
DYEAR=1900
DGENRE=country
TTITLE0=Saw Mill
TTITLE1=King Of Fools
TTITLE2=Sally Was A Good Old Girl
TTITLE3=I Can't Stop (My Lovin You)
TTITLE4=Orange Blossom Special
TTITLE5=Cotton Fields
TTITLE6=Kickin' Our Hearts Around
TTITLE7=Touch Me
TTITLE8=Sweethearts In Haven
TTITLE9=Release Me
TTITLE10=One Way Love
TTITLE11=Diggy Liggi Lo
TTITLE12=Sweethearts In Heaven (With Rose Maddox)
TTITLE13=We're The Talk Of The Town (With Rose Maddox)
EXTD=
EXTT0=
EXTT1=
EXTT2=
EXTT3=
EXTT4=
EXTT5=
EXTT6=
EXTT7=
EXTT8=
EXTT9=
EXTT10=
EXTT11=
EXTT12=
EXTT13=
PLAYORDER=
